<?xml version="1.0" encoding="utf-8"?>
<!-- Generator: Adobe Illustrator 21.1.0, SVG Export Plug-In . SVG Version: 6.00 Build 0)  -->
<svg version="1.1" id="Layer_1" xmlns="http://www.w3.org/2000/svg" xmlns:xlink="http://www.w3.org/1999/xlink" x="0px" y="0px"
	 viewBox="0 0 243 38.6" style="enable-background:new 0 0 243 38.6;" xml:space="preserve">
<style type="text/css">
	.st0{fill:#FFFFFF;}
	.st1{fill:#3DBFEF;}
</style>
<g>
	<path class="st0" d="M137.7,12.4c-0.4-3.2-2.8-3.1-2.8-3.1H132c-3-0.1-5.2,3-5.2,3l-13.1,17h16.1l3.3-4l0.6,3.9h6.9
		C140.6,29.2,138.2,16.2,137.7,12.4z M124.9,23.6l6.7-8.3l1.3,8.3H124.9z"/>
	<path class="st0" d="M146.5,9.3l-3.8,11.5c0,0-2.8,7.9,5.2,8.1h8.6c0,0,6,0.5,8.7-6.9c2.7-7.5,4.6-12.8,4.6-12.8h-7.1l-4.3,11.4
		c0,0-1.3,3.5-4,3.5c-3.3,0.1-2.8,0-2.8,0s-2.9-0.2-1.3-5.1c1.5-4.8,3-9.8,3-9.8L146.5,9.3z"/>
	<polygon class="st0" points="171.9,29.1 177.1,14.1 170.7,14.1 172.4,9.2 193.4,9.2 189.7,14 183.9,14 179.1,29.1 	"/>
	<path class="st0" d="M204.3,9.3c-6.3,0-13.3,2.9-14.7,11.2c-1.5,8.8,6.5,8.7,6.5,8.7h8.3c0,0,7.7,0.1,10.5-9.3
		C217.3,11.8,210.6,9.3,204.3,9.3z M208,19.5c-1.3,4.2-4.7,4.2-4.7,4.2h-3.7c0,0-3.6,0.1-2.9-3.9c0.6-3.7,3.8-5,6.6-5
		C206.1,14.8,209.1,15.9,208,19.5z"/>
	<path class="st1" d="M104.4,24.2l-3.7,4.9h-6.6c0,0-9.4,0.5-9.3-9C84.9,10.7,93.4,9.4,96,9.4c2.8,0,13.6,0,13.6,0l-3.9,4.8h-9.9
		c0,0-4.2,0.3-4.2,5.8c0,4.4,4.1,4.3,4.1,4.3L104.4,24.2z"/>
	<path class="st1" d="M70.2,12.4c-0.4-3.2-2.8-3.1-2.8-3.1h-2.9c-3-0.1-5.2,3-5.2,3l-13.1,17h16.1l3.3-4l0.7,3.9h6.9
		C73.1,29.2,70.7,16.2,70.2,12.4z M57.4,23.6l6.7-8.3l1.3,8.3H57.4z"/>
	<path class="st0" d="M236.6,29.1c2.9-8.9,6.4-19.9,6.4-19.9h-7.1l-4,11.9c-0.8,2-1.6-0.4-1.6-0.4s-2.5-7.1-3.1-9.2
		c-0.7-2.1-2.4-2.1-2.4-2.1l-4.3-0.1l-6.6,19.9h7.3l2.4-7.3l2.9,6c0,0,0.5,1.3,1.6,1.3C229.3,29.1,236.6,29.1,236.6,29.1z"/>
	<g>
		<path class="st1" d="M21.1,38.6h14.4c0,0,9,0.4,5-8.2c-2-4.3-12.8-26.5-12.8-26.5s-1.8-4-7.1-3.9h0.3c-5.6,0-7.1,3.9-7.1,3.9
			S3.1,26.1,1,30.4c-3.9,8.3,5,8.2,5,8.2h14.4H21.1z"/>
		<g>
			<path class="st0" d="M23.6,24.3c0,0,2.6,0.3,4.8,2.5c2.3,2.3,0.2,5.2,0.2,5.2s-2.1,3-5.3,2.4C20,33.7,21,31.2,21,31.2l0.6-1.4
				c0,0,0.5-1.2,0.1-2.2c-0.4-1-0.4-0.9-0.4-0.9"/>
			<path class="st0" d="M20.3,26.7c0,0-0.3,2.6-2.5,4.8c-2.3,2.3-5.2,0.1-5.2,0.1s-3-2.1-2.3-5.4c0.7-3.2,3.3-2.1,3.3-2.1l1.4,0.6
				c0,0,1.1,0.5,2.2,0.1s0.9-0.4,0.9-0.4"/>
			<path class="st0" d="M18,23.5c0,0-2.6-0.3-4.8-2.5c-2.3-2.3-0.2-5.2-0.2-5.2s2.1-3,5.3-2.4c3.2,0.7,2.2,3.2,2.2,3.2L20,18.1
				c0,0-0.5,1.2-0.1,2.2c0.4,1,0.4,0.9,0.4,0.9"/>
			<path class="st0" d="M21.2,21.2c0,0,0.3-2.6,2.5-4.8c2.3-2.3,5.2-0.1,5.2-0.1s3,2.1,2.3,5.4c-0.7,3.2-3.3,2.1-3.3,2.1l-1.4-0.6
				c0,0-1.1-0.5-2.2-0.1c-1.1,0.4-0.9,0.4-0.9,0.4"/>
			<path class="st0" d="M20.8,21.2c-1.5,0-2.8,1.2-2.8,2.8c0,1.5,1.2,2.8,2.8,2.8c1.5,0,2.8-1.2,2.8-2.8
				C23.6,22.4,22.4,21.2,20.8,21.2z M20.8,25.7c-1,0-1.8-0.8-1.8-1.8c0-1,0.8-1.8,1.8-1.8c1,0,1.8,0.8,1.8,1.8
				C22.6,24.9,21.8,25.7,20.8,25.7z"/>
		</g>
		<path class="st1" d="M12.5,19.2c0,0-0.3-3.2,2.4-4.7C15,14.5,12.6,16.7,12.5,19.2z"/>
		<path class="st1" d="M25.9,15.9c0,0,3.2-0.1,4.5,2.8C30.4,18.8,28.4,16.2,25.9,15.9z"/>
		<path class="st1" d="M29.1,29.3c0,0-0.1,3.2-3.1,4.3C25.9,33.6,28.6,31.7,29.1,29.3z"/>
		<path class="st1" d="M15.3,32c0,0-3.2-0.2-4.2-3.2C11.1,28.7,12.9,31.5,15.3,32z"/>
	</g>
	<path class="st0" d="M74.7,32.8c-0.6,1.2-1.9,1.8-3,1.3l0,0c-1.1-0.5-1.5-1.9-0.9-3.1L82.1,7.3C82.6,6,84,5.5,85.1,6l0,0
		c1.1,0.5,1.5,1.9,0.9,3.1L74.7,32.8z"/>
</g>
</svg>
